M48
;Layer_Color=9474304
;FILE_FORMAT=2:4
INCH
;TYPE=PLATED
T1F00S00C0.0280
T2F00S00C0.0350
%
T01
X015909Y037730
X016609Y037727
X017309Y037730
Y041077
X016609Y041073
X015909Y041077
Y045080
X016609Y045077
X017309Y045080
X036591Y045073
X037291Y045077
X037991Y045073
Y048420
X037291Y048423
X036591Y048420
X017309Y048427
X016609Y048423
X015909Y048427
T02
X024350Y044100
Y044850
X031650
Y044100
X034200
Y044850
M30
